<mxfile host="app.diagrams.net" modified="2024-01-02T09:21:50.847Z" agent="Mozilla/5.0 (Windows NT 10.0; Win64; x64) AppleWebKit/537.36 (KHTML, like Gecko) Chrome/120.0.0.0 Safari/537.36" version="22.1.16" etag="cKK-swR1fdC3l6QjHazn" type="github">
  <diagram name="Page-1" id="DsZ1w2fgFokNaE539dWy">
    <mxGraphModel>
      <root>
        <mxCell id="0" />
        <mxCell id="1" parent="0" />
      </root>
    </mxGraphModel>
  </diagram>
</mxfile>
